<?xml version="1.0" standalone="no"?>
<!DOCTYPE svg PUBLIC "-//W3C//DTD SVG 1.1//EN" "http://www.w3.org/Graphics/SVG/1.1/DTD/svg11.dtd" >
<svg xmlns="http://www.w3.org/2000/svg" xmlns:xlink="http://www.w3.org/1999/xlink" version="1.1">
<metadata></metadata>
<defs>
<font id="atkinson_hyperlegibleregular" horiz-adv-x="1130" >
<font-face units-per-em="2048" ascent="1638" descent="-410" />
<missing-glyph horiz-adv-x="573" />
<glyph horiz-adv-x="0" />
<glyph unicode="&#xd;" horiz-adv-x="0" />
<glyph unicode=" "  horiz-adv-x="573" />
<glyph unicode="&#x09;" horiz-adv-x="573" />
<glyph unicode="&#xa0;" horiz-adv-x="573" />
<glyph unicode="!" horiz-adv-x="575" d="M156 106q0 55 38.5 94.5t92.5 39.5q55 0 94 -39t39 -95q0 -54 -39 -92.5t-94 -38.5q-54 0 -92.5 38.5t-38.5 92.5zM197 1016v352h182v-352l-37 -617h-109z" />
<glyph unicode="&#x22;" horiz-adv-x="616" d="M82 1368h164l-29 -453h-106zM371 1368h164l-29 -453h-107z" />
<glyph unicode="#" horiz-adv-x="1341" d="M78 352l22 166h254l47 332h-254l23 166h254l49 352h168l-49 -352h252l49 352h168l-49 -352h252l-23 -166h-254l-45 -332h252l-23 -166h-253l-50 -352h-168l50 352h-252l-49 -352h-168l51 352h-254zM522 518h252l45 332h-252z" />
<glyph unicode="$" horiz-adv-x="1216" d="M82 299l178 53q70 -184 287 -211v490l-74 14q-75 15 -139 43t-119.5 72t-87 111t-31.5 149q0 70 27 130t71 101.5t103 72t122 47t128 20.5v129h102v-129q144 -11 255 -74t167 -180l-176 -52q-72 120 -246 142v-436l25 -7q57 -14 92.5 -24t89.5 -29.5t88 -39t74 -50 t63 -66t38.5 -84.5t15.5 -106q0 -123 -68.5 -216t-177 -140.5t-240.5 -53.5v-153h-102v155q-174 15 -293.5 99t-171.5 223zM293 1030q0 -86 60.5 -137.5t162.5 -71.5l31 -6v414q-44 -4 -85 -16.5t-81 -35t-64 -60.5t-24 -87zM649 139q134 7 210.5 70t76.5 160 q0 99 -73.5 152.5t-213.5 86.5v-469z" />
<glyph unicode="%" horiz-adv-x="1898" d="M78 1020q0 155 109 264t264 109q154 0 262 -109t108 -264q0 -154 -108 -262.5t-262 -108.5q-155 0 -264 108.5t-109 262.5zM229 1020q0 -90 65.5 -154.5t156.5 -64.5t155 64t64 155q0 92 -64 156.5t-155 64.5q-92 0 -157 -64.5t-65 -156.5zM381 0l958 1368h181 l-959 -1368h-180zM1077 348q0 154 109 263.5t264 109.5q154 0 262.5 -109.5t108.5 -263.5q0 -155 -108.5 -264t-262.5 -109q-155 0 -264 109t-109 264zM1229 348q0 -91 64.5 -156t156.5 -65q91 0 155 65t64 156t-64 155t-155 64q-92 0 -156.5 -64t-64.5 -155z" />
<glyph unicode="&#x26;" horiz-adv-x="1443" d="M78 375q0 152 92.5 257t257.5 161q-152 172 -152 309q0 132 104 211.5t269 79.5q67 0 127.5 -15.5t113.5 -48.5t84.5 -92.5t31.5 -138.5q0 -235 -287 -355l278 -294q59 142 70 290h178q-19 -238 -127 -417l305 -322h-243l-168 178q-193 -203 -473 -203q-209 0 -335 113.5 t-126 286.5zM262 383q0 -114 82 -185t195 -71q215 0 362 166l-371 391q-268 -93 -268 -301zM461 1106q0 -32 13 -66.5t35 -65.5t40.5 -53.5t40.5 -45.5t24 -25q105 39 164.5 98.5t59.5 138.5q0 78 -51.5 116t-133.5 38q-81 0 -136.5 -35t-55.5 -100z" />
<glyph unicode="'" horiz-adv-x="327" d="M82 1368h164l-29 -453h-106z" />
<glyph unicode="(" horiz-adv-x="614" d="M102 573q0 438 226 795h153q-104 -149 -165.5 -359t-61.5 -440q0 -237 70 -467t219 -432h-156q-140 198 -212.5 430.5t-72.5 472.5z" />
<glyph unicode=")" horiz-adv-x="614" d="M72 -330q149 202 219.5 433t70.5 468q0 229 -61.5 438.5t-165.5 358.5h154q223 -352 223 -793q0 -241 -72.5 -474t-210.5 -431h-157z" />
<glyph unicode="*" horiz-adv-x="886" d="M139 1106l37 113l207 -68v217h117v-217l207 68l36 -113l-208 -66l129 -176l-95 -69l-129 176l-127 -176l-94 69l127 176z" />
<glyph unicode="+" horiz-adv-x="1232" d="M109 426v164h426v426h163v-426h426v-164h-426v-426h-163v426h-426z" />
<glyph unicode="," horiz-adv-x="419" d="M78 109q0 54 38.5 92.5t92.5 38.5q55 0 94 -39t39 -92q0 -25 -10 -52l-127 -329h-113l96 249q-47 8 -78.5 45.5t-31.5 86.5z" />
<glyph unicode="-" horiz-adv-x="753" d="M78 426v166h598v-166h-598z" />
<glyph unicode="." horiz-adv-x="419" d="M78 106q0 55 38.5 94.5t92.5 39.5q55 0 94 -39t39 -95q0 -54 -39 -92.5t-94 -38.5q-54 0 -92.5 38.5t-38.5 92.5z" />
<glyph unicode="/" horiz-adv-x="772" d="M31 0l532 1368h178l-532 -1368h-178z" />
<glyph unicode="0" horiz-adv-x="1327" d="M123 686q0 342 139 524.5t402 182.5t401.5 -182.5t138.5 -524.5q0 -345 -138.5 -528t-401.5 -183t-402 183t-139 528zM309 686q0 -273 88 -416t267 -143q141 0 227 92l-541 776q-41 -119 -41 -309zM444 1159l539 -770q35 122 35 297q0 271 -88 413t-266 142 q-135 0 -220 -82z" />
<glyph unicode="1" horiz-adv-x="823" d="M86 1032v137q81 0 142 8t119.5 28.5t99 61t61.5 101.5h115v-1368h-172v1032h-365z" />
<glyph unicode="2" horiz-adv-x="1124" d="M70 0v154q154 113 266.5 203.5t211 182t159 169t95 154.5t34.5 149q0 107 -68 172t-188 65q-106 0 -185 -56t-102 -173l-172 49q37 150 160 237t303 87q194 0 314 -95.5t120 -263.5q0 -77 -25.5 -154.5t-76.5 -153t-112 -145t-148 -145t-168 -139t-187 -139.5h754v-158 h-985z" />
<glyph unicode="3" horiz-adv-x="1175" d="M86 309l170 49q24 -112 100.5 -175.5t202.5 -63.5q138 0 223.5 69.5t85.5 194.5q0 54 -18.5 97t-45 69.5t-69.5 45.5t-76 28t-82.5 14t-71.5 5.5t-59 0.5v156q40 0 70.5 1t73 6.5t74 14t65.5 26t55.5 40.5t35.5 58.5t14 80.5q0 106 -76 164.5t-191 58.5q-122 0 -197 -62 t-96 -167l-168 49q38 150 159 237t306 87q93 0 170.5 -19.5t140 -59.5t97.5 -109t35 -161q0 -105 -58.5 -189t-164.5 -128q262 -81 262 -342q0 -100 -40.5 -180t-110 -129t-158 -75t-187.5 -26q-196 0 -314.5 92t-156.5 242z" />
<glyph unicode="4" horiz-adv-x="1257" d="M78 338v162l678 868h174v-868h250v-162h-250v-338h-172v338h-680zM264 500h494v633z" />
<glyph unicode="5" horiz-adv-x="1193" d="M111 309l168 49q53 -239 303 -239q129 0 217 88.5t88 241.5q0 82 -27 146t-72 102t-98 57.5t-110 19.5q-98 0 -169 -46.5t-96 -104.5l-168 49l84 696h785v-166h-645l-47 -383q106 103 294 103q122 0 223 -54t163.5 -163t62.5 -254q0 -114 -40 -206t-107.5 -150t-154 -89 t-183.5 -31q-195 0 -312 92t-159 242z" />
<glyph unicode="6" horiz-adv-x="1224" d="M123 635q0 121 17 228t57 205.5t100 169.5t152.5 113t207.5 42q144 0 240.5 -60t144.5 -159l-174 -52q-31 61 -90.5 94t-140.5 33q-156 0 -243 -142t-93 -386q49 86 140.5 138t220.5 52q191 0 315.5 -130t124.5 -335q0 -95 -34.5 -180.5t-96 -150t-152.5 -102.5t-198 -38 q-498 0 -498 660zM322 440q0 -142 82 -230.5t217 -88.5q134 0 215.5 88.5t81.5 230.5t-81.5 231t-215.5 89q-135 0 -217 -89t-82 -231z" />
<glyph unicode="7" horiz-adv-x="1044" d="M31 1202v166h944v-166l-569 -1202h-216l594 1202h-753z" />
<glyph unicode="8" horiz-adv-x="1259" d="M123 385q0 129 67.5 223.5t184.5 141.5q-117 110 -117 272q0 154 108.5 262.5t262.5 108.5q155 0 263.5 -108.5t108.5 -262.5q0 -162 -116 -272q117 -47 184.5 -141.5t67.5 -223.5q0 -191 -143 -300.5t-365 -109.5q-144 0 -257.5 47t-181 141t-67.5 222zM309 385 q0 -119 86.5 -188.5t233.5 -69.5q148 0 234.5 69t86.5 189t-87 192t-234 72q-146 0 -233 -72t-87 -192zM410 1024q0 -93 64 -158t155 -65t155 65t64 158q0 91 -64 154t-155 63t-155 -63t-64 -154z" />
<glyph unicode="9" horiz-adv-x="1224" d="M123 903q0 132 65 244.5t177.5 178t246.5 65.5t246.5 -65t178 -178t65.5 -249q0 -96 -37 -186q-27 -68 -152 -288t-264 -425h-213q172 238 285 424q-53 -12 -109 -12q-132 0 -244.5 65.5t-178.5 178.5t-66 247zM299 903q0 -131 91.5 -223t221.5 -92q132 0 225 92t93 223 q0 129 -93 221.5t-225 92.5q-130 0 -221.5 -92.5t-91.5 -221.5z" />
<glyph unicode=":" horiz-adv-x="419" d="M78 106q0 55 38.5 94.5t92.5 39.5q55 0 94 -39t39 -95q0 -54 -39 -92.5t-94 -38.5q-54 0 -92.5 38.5t-38.5 92.5zM78 901q0 54 38.5 92.5t92.5 38.5q55 0 94 -38.5t39 -92.5q0 -55 -39 -94t-94 -39q-54 0 -92.5 39t-38.5 94z" />
<glyph unicode=";" horiz-adv-x="419" d="M78 109q0 54 38.5 92.5t92.5 38.5q55 0 94 -39t39 -92q0 -25 -10 -52l-127 -329h-113l96 249q-47 8 -78.5 45.5t-31.5 86.5zM78 901q0 54 38.5 92.5t92.5 38.5q55 0 94 -38.5t39 -92.5q0 -55 -39 -94t-94 -39q-54 0 -92.5 39t-38.5 94z" />
<glyph unicode="&#x3c;" horiz-adv-x="1132" d="M82 436v144l969 436v-185l-754 -323l754 -324v-184z" />
<glyph unicode="=" horiz-adv-x="1232" d="M109 248v162h1015v-162h-1015zM109 629v162h1015v-162h-1015z" />
<glyph unicode="&#x3e;" horiz-adv-x="1132" d="M82 0v184l754 324l-754 323v185l969 -436v-144z" />
<glyph unicode="?" horiz-adv-x="1064" d="M82 1073q31 147 154 233.5t299 86.5q82 0 157 -20.5t136.5 -60.5t98 -106t36.5 -149q0 -218 -256 -385q-66 -43 -95 -67.5t-46 -59.5t-17 -86v-70h-176v76q0 58 13.5 103t45.5 83.5t70.5 69.5t103.5 72q83 52 129.5 111t46.5 136q0 97 -71 153t-185 56q-126 0 -193 -65 t-83 -158zM332 106q0 56 39 95t94 39t93 -39.5t38 -94.5q0 -38 -21.5 -70.5t-58.5 -49.5q-29 -11 -51 -11q-53 0 -93 37t-40 94z" />
<glyph unicode="@" horiz-adv-x="1597" d="M102 686q0 191 95 354t258.5 258t355.5 95q94 0 190 -27t184.5 -81.5t157.5 -129.5t110.5 -180.5t41.5 -224.5q0 -92 -18.5 -166.5t-49.5 -123t-72.5 -82t-85.5 -47.5t-91 -14q-71 0 -130 33t-79 86q-48 -58 -110.5 -88.5t-127.5 -30.5q-117 0 -201 89t-84 245 q0 90 22 161.5t59.5 118t89.5 77t108.5 43t120.5 12.5q119 0 244 -41v-463q0 -43 25 -66.5t63 -23.5q51 0 89.5 27t59.5 70.5t31 90t10 93.5q0 138 -74 256.5t-203 189t-280 70.5q-118 0 -225.5 -45.5t-185.5 -123t-124.5 -185.5t-46.5 -226q0 -127 49 -238t130 -186 t186 -118.5t217 -43.5q146 0 279 74v-141q-131 -58 -275 -58q-136 0 -264.5 52t-228 143t-160 226t-60.5 290zM618 641q0 -83 40 -127.5t98 -44.5q66 0 117 59.5t51 163.5v211q-58 8 -93 8q-213 0 -213 -270z" />
<glyph unicode="A" horiz-adv-x="1282" d="M20 0l515 1370h215l512 -1370h-205l-105 299h-622l-105 -299h-205zM389 465h504l-252 711z" />
<glyph unicode="B" horiz-adv-x="1267" d="M156 0v1368h551q107 0 190.5 -28.5t133 -77t74.5 -108t25 -126.5q0 -83 -37.5 -163t-105.5 -138q98 -52 150.5 -142t52.5 -192q0 -75 -29 -144.5t-83.5 -125.5t-142.5 -89.5t-196 -33.5h-583zM348 162h412q108 0 169.5 70.5t61.5 166.5q0 95 -61 163.5t-172 68.5h-410 v-469zM348 782h379q98 0 153.5 62t55.5 147q0 86 -56 150.5t-153 64.5h-379v-424z" />
<glyph unicode="C" horiz-adv-x="1343" d="M102 686q0 320 173.5 513.5t463.5 193.5q174 0 311 -81t207 -229l-167 -61q-48 96 -140 152.5t-221 56.5q-189 0 -309.5 -143.5t-120.5 -401.5q0 -254 120.5 -401.5t315.5 -147.5q129 0 221.5 56t141.5 153l168 -61q-72 -150 -215.5 -230t-327.5 -80q-192 0 -333.5 91 t-214.5 251.5t-73 368.5z" />
<glyph unicode="D" horiz-adv-x="1378" d="M156 0v1368h372q135 0 245 -20.5t205.5 -70t160 -126.5t101 -194.5t36.5 -270.5q0 -129 -25 -232.5t-73 -178.5t-113 -128.5t-150.5 -85.5t-180 -46.5t-206.5 -14.5h-372zM348 162h176q67 0 120.5 4.5t113 18t104.5 36.5t87.5 63t69.5 94t43.5 132t16.5 176 q0 97 -16.5 174.5t-43.5 131t-69.5 93t-87.5 62.5t-104.5 36.5t-113 18t-120.5 4.5h-176v-1044z" />
<glyph unicode="E" horiz-adv-x="1161" d="M156 0v1368h927v-166h-735v-416h543v-165h-543v-455h735v-166h-927z" />
<glyph unicode="F" horiz-adv-x="1122" d="M156 0v1368h888v-166h-696v-416h696v-165h-696v-621h-192z" />
<glyph unicode="G" horiz-adv-x="1454" d="M102 686q0 320 173.5 513.5t463.5 193.5q173 0 311.5 -81t209.5 -229l-170 -61q-48 96 -140 152.5t-221 56.5q-189 0 -309.5 -143.5t-120.5 -401.5q0 -255 118.5 -402t311.5 -147q58 0 112 10t108.5 35.5t94 64.5t64.5 103t25 146v45h-400v166h582v-707h-111l-51 172 q-125 -197 -432 -197q-193 0 -334 91.5t-213 251t-72 368.5z" />
<glyph unicode="H" horiz-adv-x="1413" d="M156 0v1368h192v-582h717v582h192v-1368h-192v621h-717v-621h-192z" />
<glyph unicode="I" horiz-adv-x="847" d="M135 0v152h193v1065h-193v151h578v-151h-193v-1065h193v-152h-578z" />
<glyph unicode="J" horiz-adv-x="1044" d="M31 387l178 51v-15q0 -137 68 -211q72 -79 182 -79q36 0 67.5 7.5t63.5 28t54.5 53.5t37 87.5t14.5 126.5v932h193v-934q0 -222 -113.5 -340.5t-316.5 -118.5q-195 0 -307 105.5t-121 306.5z" />
<glyph unicode="K" horiz-adv-x="1284" d="M156 0v1368h192v-688l617 688h239l-522 -571l582 -797h-236l-475 655l-205 -225v-430h-192z" />
<glyph unicode="L" horiz-adv-x="1103" d="M156 0v1368h192v-1202h735v-166h-927z" />
<glyph unicode="M" horiz-adv-x="1679" d="M156 0v1368h319l365 -1118l364 1118h320v-1368h-193v1167l-395 -1167h-191l-397 1167v-1167h-192z" />
<glyph unicode="N" horiz-adv-x="1411" d="M156 0v1368h284l623 -1163v1163h192v-1368h-282l-625 1169v-1169h-192z" />
<glyph unicode="O" horiz-adv-x="1488" d="M102 686q0 205 77.5 365t224 251t339.5 91q194 0 341 -91t224.5 -251t77.5 -365q0 -206 -77.5 -367t-224.5 -252.5t-341 -91.5q-193 0 -339.5 91.5t-224 252.5t-77.5 367zM299 686q0 -257 125.5 -403t318.5 -146q195 0 321 146t126 403q0 129 -34.5 233t-95 172t-142 104 t-175.5 36q-193 0 -318.5 -144.5t-125.5 -400.5z" />
<glyph unicode="P" horiz-adv-x="1230" d="M156 2v1366h428q106 0 188 -10.5t156 -38t121.5 -73.5t75.5 -119.5t28 -172.5t-28 -172t-75.5 -118t-122 -72t-155.5 -37t-188 -10h-236v-543h-192zM348 711h252q48 0 83 1.5t74.5 7.5t66.5 16.5t54 28.5t43 43.5t25.5 62t9.5 83.5q0 65 -18.5 111.5t-48.5 73.5 t-78.5 42.5t-96 20t-114.5 4.5h-252v-495z" />
<glyph unicode="Q" horiz-adv-x="1542" d="M102 686q0 205 77.5 365t224 251t339.5 91q194 0 341 -91t224.5 -251t77.5 -365q0 -223 -96 -401l252 -236l-131 -139l-240 223q-167 -158 -428 -158q-193 0 -339.5 91.5t-224 252.5t-77.5 367zM299 686q0 -257 125.5 -403t318.5 -146q179 0 297 121l-366 344l131 139 l340 -319q45 115 45 264q0 129 -34.5 233t-95 172t-142 104t-175.5 36q-193 0 -318.5 -144.5t-125.5 -400.5z" />
<glyph unicode="R" horiz-adv-x="1265" d="M156 0v1368h434q107 0 188 -9t155.5 -35t122 -69t75.5 -113.5t28 -166.5q0 -60 -9 -107.5t-33.5 -95t-66 -81.5t-109.5 -61t-161 -40l424 -590h-235l-416 575h-205v-575h-192zM348 737h256q68 0 115.5 4t97 18t79 38.5t48.5 68t19 105.5t-19 105.5t-48.5 68.5t-79 39 t-97 18t-115.5 4h-256v-469z" />
<glyph unicode="S" horiz-adv-x="1220" d="M82 299l178 53q33 -104 133 -159.5t221 -55.5q133 0 227.5 64t94.5 180q0 92 -77.5 144.5t-272.5 92.5q-46 10 -73 16t-73.5 19t-75.5 24t-69.5 30.5t-65.5 39.5t-53.5 49.5t-44.5 62t-26.5 75.5t-10.5 92q0 111 73.5 196.5t186.5 128t242 42.5q154 0 283.5 -65 t191.5 -191l-176 -52q-38 69 -123.5 107.5t-183.5 38.5q-122 0 -208.5 -56t-86.5 -157q0 -25 6.5 -47t15.5 -39t28.5 -32.5t34.5 -26.5t44.5 -22t48 -17.5t56 -16t57 -13.5t61.5 -13q61 -13 103 -23.5t98 -29.5t94 -39.5t78.5 -52.5t65 -69.5t40 -89.5t15.5 -114 q0 -122 -78 -214.5t-198 -138t-257 -45.5q-86 0 -167 20t-152 58.5t-125 102t-80 143.5z" />
<glyph unicode="T" horiz-adv-x="1142" d="M20 1202v166h1102v-166h-454v-1202h-193v1202h-455z" />
<glyph unicode="U" horiz-adv-x="1413" d="M156 571v797h192v-811q0 -209 84 -312.5t275 -103.5t274.5 103.5t83.5 312.5v811h192v-797q0 -306 -128.5 -451t-421.5 -145q-292 0 -421.5 145.5t-129.5 450.5z" />
<glyph unicode="V" horiz-adv-x="1206" d="M20 1368h211l371 -1143l373 1143h211l-471 -1368h-226z" />
<glyph unicode="W" horiz-adv-x="1720" d="M20 1368h211l267 -1130l250 1130h225l250 -1130l266 1130h211l-342 -1368h-234l-264 1130l-264 -1130h-231z" />
<glyph unicode="X" horiz-adv-x="1275" d="M20 0l502 705l-473 663h230l358 -502l358 502h232l-473 -663l501 -705h-231l-387 543l-385 -543h-232z" />
<glyph unicode="Y" horiz-adv-x="1218" d="M20 1368h211l379 -661l377 661h211l-491 -838v-530h-193v530z" />
<glyph unicode="Z" horiz-adv-x="1243" d="M90 0v166l807 1036h-776v166h1001v-166l-803 -1036h834v-166h-1063z" />
<glyph unicode="[" horiz-adv-x="645" d="M156 -330v1698h422v-151h-256v-1395h256v-152h-422z" />
<glyph unicode="\" horiz-adv-x="772" d="M31 1368h178l532 -1368h-178z" />
<glyph unicode="]" horiz-adv-x="645" d="M68 -178h256v1395h-256v151h421v-1698h-421v152z" />
<glyph unicode="^" d="M109 637l378 731h156l379 -731h-182l-275 528l-274 -528h-182z" />
<glyph unicode="_" horiz-adv-x="811" d="M20 0h771v-162h-771v162z" />
<glyph unicode="`" horiz-adv-x="548" d="M109 1370q0 32 22.5 55t54.5 23q42 0 64 -31l190 -248h-143q-117 95 -154 134q-34 36 -34 67z" />
<glyph unicode="a" horiz-adv-x="1077" d="M78 268q0 71 32.5 125.5t87.5 91.5t146 65t187.5 45t232.5 32v19q0 249 -229 249q-91 0 -150 -42t-76 -116l-166 49q41 116 146 181t243 65q210 0 306 -98.5t98 -312.5l2 -238q2 -209 35 -383h-158l-41 139q-98 -164 -346 -164q-150 0 -250 79t-100 214zM268 272 q0 -73 52.5 -116t144.5 -43q64 0 117 15.5t98.5 50t71.5 97.5t26 150v63q-101 -11 -173.5 -22t-139.5 -28.5t-108 -39.5t-65 -54t-24 -73z" />
<glyph unicode="b" horiz-adv-x="1159" d="M143 0v1368h172v-512q101 176 330 176q87 0 165.5 -36t139 -102t96 -167t35.5 -223t-35.5 -223.5t-96 -167.5t-139 -102t-165.5 -36q-230 0 -330 179l-45 -154h-127zM311 504q0 -179 78.5 -280t210.5 -101t210.5 101t78.5 280t-78.5 280t-210.5 101t-210.5 -101 t-78.5 -280z" />
<glyph unicode="c" horiz-adv-x="1024" d="M78 504q0 231 134.5 379.5t356.5 148.5q130 0 230 -64.5t153 -164.5l-157 -58q-34 62 -97.5 99t-140.5 37q-124 0 -208.5 -96.5t-84.5 -278.5t85 -280.5t208 -98.5q80 0 143.5 36.5t98.5 96.5l157 -57q-59 -102 -166.5 -165t-238.5 -63q-215 0 -344 147.5t-129 381.5z " />
<glyph unicode="d" horiz-adv-x="1155" d="M78 504q0 122 35.5 223t96 167t139 102t165.5 36q229 0 330 -176v512h172v-985q0 -205 35 -383h-162l-45 154q-100 -179 -330 -179q-87 0 -165.5 36t-139 102t-96 167.5t-35.5 223.5zM270 504q0 -179 78.5 -280t210.5 -101t210.5 101t78.5 280t-78.5 280t-210.5 101 t-210.5 -101t-78.5 -280z" />
<glyph unicode="e" horiz-adv-x="1103" d="M78 506q0 237 140 381.5t353 144.5q118 0 213 -48t153 -128q59 -81 87 -183q22 -80 22 -164q0 -24 -2 -48h-782q2 -74 23.5 -133t54 -95.5t74 -61t81.5 -34.5t80 -10q161 0 238 100l166 -49q-58 -93 -162 -148t-242 -55q-232 0 -364.5 149.5t-132.5 381.5zM264 598h598 q-2 114 -82 200.5t-209 86.5q-125 0 -210.5 -71t-96.5 -216z" />
<glyph unicode="f" horiz-adv-x="636" d="M31 879v137h172v151q0 83 10.5 132.5t40.5 84.5t82.5 48.5t138.5 13.5h111v-146h-107q-65 0 -84.5 -26t-19.5 -105v-153h211v-137h-211v-879h-172v879h-172z" />
<glyph unicode="g" horiz-adv-x="1146" d="M78 524q0 119 35.5 216.5t95.5 160.5t137 97t162 34q218 0 323 -176l48 160h125v-920q0 -51 -1.5 -85t-6.5 -78t-15 -74.5t-28.5 -65.5t-44.5 -60.5t-64 -50t-88 -42.5q-94 -33 -195 -33q-88 0 -165 23t-141 78t-89 136l172 47q25 -72 86.5 -102.5t136.5 -30.5 q64 0 115 17q91 31 123 92.5t32 189.5v136q-104 -175 -323 -175q-85 0 -162 34t-137 96.5t-95.5 159.5t-35.5 216zM264 524q0 -170 79 -266t208 -96q125 0 206 89.5t81 272.5t-81 272t-206 89q-129 0 -208 -95.5t-79 -265.5z" />
<glyph unicode="h" horiz-adv-x="1118" d="M143 0v1368h172v-506q101 170 328 170q336 0 336 -389v-643h-172v592q0 52 -4 91t-18 79t-37.5 65.5t-65 41.5t-98.5 16q-126 0 -197.5 -86.5t-71.5 -247.5v-551h-172z" />
<glyph unicode="i" horiz-adv-x="569" d="M92 879v137h314v-1016h-173v879h-141zM193 1337q0 53 37 90t89 37q54 0 92 -37t38 -90q0 -54 -38 -91.5t-92 -37.5q-53 0 -89.5 37.5t-36.5 91.5z" />
<glyph unicode="j" horiz-adv-x="520" d="M-119 -176q37 -2 96 -2q130 0 168.5 37.5t38.5 165.5v991h172v-1002q0 -198 -76 -271t-286 -73q-31 0 -113 4v150zM141 1337q0 53 37.5 90t91.5 37q52 0 89.5 -37t37.5 -90q0 -54 -37 -91.5t-90 -37.5q-54 0 -91.5 37.5t-37.5 91.5z" />
<glyph unicode="k" horiz-adv-x="1003" d="M143 0v1368h172v-809l410 457h207l-383 -420l434 -596h-211l-338 469l-119 -129v-340h-172z" />
<glyph unicode="l" horiz-adv-x="489" d="M143 254v1112h172v-1083q0 -82 18 -106.5t87 -24.5h39v-152h-76q-77 0 -120.5 9.5t-72 39t-38 76.5t-9.5 129z" />
<glyph unicode="m" horiz-adv-x="1722" d="M143 0v1016h127l45 -154q101 170 306 170q220 0 292 -178q117 178 342 178q170 0 249 -103t79 -286v-643h-172v592q0 52 -4.5 91t-18 79t-36.5 65.5t-63 41.5t-95 16q-112 0 -178 -87t-66 -247v-551h-172v592q0 51 -4.5 90.5t-18.5 79.5t-37 65.5t-63 41.5t-94 16 q-113 0 -179.5 -87t-66.5 -247v-551h-172z" />
<glyph unicode="n" horiz-adv-x="1118" d="M143 0v1016h127l45 -154q101 170 328 170q336 0 336 -389v-643h-172v592q0 52 -4 91t-18 79t-37.5 65.5t-65 41.5t-98.5 16q-126 0 -197.5 -86.5t-71.5 -247.5v-551h-172z" />
<glyph unicode="o" d="M78 504q0 106 28.5 195t76 149.5t110.5 103t131.5 61.5t140.5 19q73 0 141.5 -19.5t132 -61.5t111 -102.5t75.5 -149t28 -195.5t-28 -196t-75.5 -149.5t-111 -102.5t-132.5 -61.5t-141 -19.5q-90 0 -174.5 32t-155.5 94t-114 166.5t-43 236.5zM262 504q0 -94 26.5 -168.5 t71 -119t97 -67t108.5 -22.5q57 0 109.5 22.5t96.5 67t70.5 119t26.5 168.5t-26.5 168.5t-70.5 119t-96.5 67t-109.5 22.5q-56 0 -108.5 -22.5t-97 -67t-71 -119t-26.5 -168.5z" />
<glyph unicode="p" horiz-adv-x="1159" d="M143 -330v1346h125l47 -160q101 176 330 176q87 0 165.5 -36t139 -101.5t96 -167t35.5 -223.5t-35.5 -223t-96 -167t-139 -102.5t-165.5 -36.5q-230 0 -330 179v-484h-172zM311 504q0 -179 78.5 -280t210.5 -101t210.5 101t78.5 280t-78.5 280t-210.5 101t-210.5 -101 t-78.5 -280z" />
<glyph unicode="q" horiz-adv-x="1179" d="M78 504q0 122 35 223.5t95 167t138.5 101.5t165.5 36q231 0 332 -176l47 160h125v-1065q0 -61 36 -102.5t109 -41.5q51 0 125 27v-160q-93 -28 -174 -28q-44 0 -81.5 8.5t-72.5 30t-60 54.5t-39.5 85.5t-14.5 120.5v209q-100 -179 -332 -179q-87 0 -165.5 36.5 t-138 102.5t-95 167t-35.5 223zM268 504q0 -179 78.5 -280t212.5 -101q132 0 210.5 101t78.5 280t-78.5 280t-210.5 101q-134 0 -212.5 -101t-78.5 -280z" />
<glyph unicode="r" horiz-adv-x="696" d="M143 0v1016h125l56 -189q56 96 147.5 150.5t214.5 54.5v-178q-202 0 -286.5 -103.5t-84.5 -314.5v-436h-172z" />
<glyph unicode="s" horiz-adv-x="964" d="M63 229l166 62q22 -85 94.5 -127.5t165.5 -42.5q95 0 167.5 42.5t72.5 108.5q0 56 -35.5 92.5t-92.5 54t-126 31t-137.5 31.5t-125.5 46.5t-92.5 85.5t-35.5 139q0 87 57.5 153t145 97.5t188.5 31.5q127 0 232 -53t149 -154l-162 -59q-25 59 -89.5 90t-141.5 31 q-83 0 -144 -36t-61 -99q0 -49 35.5 -80.5t92.5 -46.5t126 -27t137.5 -31t125.5 -49.5t92.5 -91.5t35.5 -149q0 -93 -60 -163.5t-153 -105.5t-201 -35q-141 0 -259 65t-167 189z" />
<glyph unicode="t" horiz-adv-x="663" d="M41 879v137h172v256h172v-256h197v-137h-197v-596q0 -83 17 -107t87 -24h93v-152h-129q-77 0 -120.5 9.5t-72 39t-38 76.5t-9.5 129v625h-172z" />
<glyph unicode="u" horiz-adv-x="1097" d="M139 369v649h172v-598q0 -53 4 -92t17.5 -79t36 -65t62 -41t93.5 -16q123 0 190.5 85.5t67.5 246.5v559h172v-1018h-129l-43 147q-100 -172 -317 -172q-170 0 -248 105t-78 289z" />
<glyph unicode="v" horiz-adv-x="903" d="M0 1016h186l267 -791l264 791h186l-362 -1016h-179z" />
<glyph unicode="w" horiz-adv-x="1339" d="M0 1016h184l195 -752l203 752h178l201 -752l194 752h184l-290 -1016h-158l-221 817l-221 -817h-156z" />
<glyph unicode="x" horiz-adv-x="944" d="M0 0l371 522l-353 494h203l250 -352l252 352h203l-353 -494l371 -522h-203l-270 379l-268 -379h-203z" />
<glyph unicode="y" horiz-adv-x="878" d="M0 1014h190l250 -783l250 783h189l-361 -1059q-30 -89 -55 -138t-64.5 -85.5t-94 -49t-140.5 -12.5h-88v152h69q111 0 149 30t73 146z" />
<glyph unicode="z" horiz-adv-x="942" d="M82 0v152l584 712h-566v152h760v-152l-584 -712h605v-152h-799z" />
<glyph unicode="{" horiz-adv-x="653" d="M78 451v137q88 0 115.5 47t27.5 147v308q0 83 10.5 133t41.5 84.5t83.5 47.5t139.5 13h88v-145h-86q-66 0 -85.5 -25.5t-19.5 -105.5v-314q0 -122 -41 -180t-121 -80q81 -22 121.5 -79t40.5 -179v-313q0 -81 19.5 -106t85.5 -25h86v-146h-88q-87 0 -140 13t-83.5 48 t-41 85t-10.5 133v307q0 100 -27.5 147.5t-115.5 47.5z" />
<glyph unicode="|" horiz-adv-x="477" d="M156 -330v1698h166v-1698h-166z" />
<glyph unicode="}" horiz-adv-x="653" d="M70 -184h84q68 0 87 25t19 106v313q0 122 40.5 179t119.5 79q-79 22 -119.5 80.5t-40.5 179.5v314q0 80 -19.5 105.5t-86.5 25.5h-84v145h88q87 0 139.5 -13t83 -47.5t41 -84t10.5 -133.5v-308q0 -100 27.5 -147t115.5 -47v-137q-88 0 -115.5 -47.5t-27.5 -147.5v-307 q0 -84 -10.5 -133.5t-41 -84.5t-83 -48t-139.5 -13h-88v146z" />
<glyph unicode="~" horiz-adv-x="1136" d="M82 453q24 96 98 152.5t182 56.5q57 0 120.5 -17.5t108.5 -39t96 -39t87 -17.5q49 0 84 26.5t45 77.5l152 -45q-24 -95 -98 -152t-181 -57q-49 0 -108.5 17.5t-105 38t-100 38t-95.5 17.5q-52 0 -87 -26t-44 -76z" />
<glyph unicode="&#xa1;" horiz-adv-x="575" d="M156 930q0 55 38.5 94t92.5 39q55 0 94 -38.5t39 -94.5q0 -54 -39 -92.5t-94 -38.5q-54 0 -92.5 38.5t-38.5 92.5zM197 23l36 614h109l37 -614v-353h-182v353z" />
<glyph unicode="&#xa2;" horiz-adv-x="1024" d="M78 506q0 206 109.5 348.5t295.5 171.5v143h103v-137q125 -4 220 -67.5t146 -159.5l-157 -57q-31 56 -85.5 91t-123.5 42v-754q71 7 126 42.5t87 90.5l157 -57q-54 -95 -151.5 -157t-218.5 -71v-153h-103v158q-188 25 -296.5 168t-108.5 358zM264 508q0 -153 61 -248 t158 -123v733q-97 -27 -158 -118.5t-61 -243.5z" />
<glyph unicode="&#xa3;" horiz-adv-x="1200" d="M143 651v105h176q-30 61 -45 96t-30 90.5t-15 104.5q0 73 26.5 132.5t70.5 98.5t103 65.5t122.5 38t130.5 11.5q169 0 282.5 -76t153.5 -209l-170 -51q-50 190 -274 190q-47 0 -90.5 -10.5t-83.5 -33t-64 -65t-24 -98.5q0 -16 1.5 -32t6 -33.5t7.5 -30.5t11 -32.5 t11.5 -30t14.5 -32.5t14.5 -29.5t16 -32.5l15.5 -31h418v-105h-371q37 -81 37 -164q0 -186 -197 -303q65 25 123 25t164.5 -37t179.5 -37q105 0 223 51l52 -149q-141 -62 -256 -62q-77 0 -202 39t-200 39q-119 0 -274 -78l-57 138q35 14 74 39.5t85 68t75.5 106t29.5 136.5 q0 88 -47 188h-224z" />
<glyph unicode="&#xa4;" horiz-adv-x="1187" d="M109 244l135 135q-97 126 -97 278q0 154 97 277l-135 135l73 74l135 -135q119 96 277 96q160 0 276 -96l136 135l73 -74l-135 -135q96 -116 96 -277q0 -159 -96 -278l135 -135l-73 -72l-136 133q-119 -94 -276 -94q-155 0 -277 94l-135 -133zM303 657q0 -122 85 -207 t206 -85t206 85t85 207q0 120 -85 205.5t-206 85.5t-206 -85.5t-85 -205.5z" />
<glyph unicode="&#xa5;" horiz-adv-x="1218" d="M20 1368h211l379 -661l377 661h211l-475 -807h289v-104h-305v-176h305v-105h-305v-176h-193v176h-307v105h307v176h-307v104h289z" />
<glyph unicode="&#xa6;" horiz-adv-x="477" d="M156 305h166v-635h-166v635zM156 733v635h166v-635h-166z" />
<glyph unicode="&#xa7;" horiz-adv-x="1085" d="M63 592q0 96 69.5 168t176.5 108q-153 101 -153 258q0 85 55 147.5t137.5 91t177.5 28.5q137 0 234 -57.5t139 -159.5l-166 -50q-24 62 -81 92.5t-134 30.5q-80 0 -133 -30.5t-53 -88.5q0 -8 4 -32q9 -38 52.5 -75.5t104.5 -70t133 -67t142 -74.5t127.5 -84.5t93 -104 t35.5 -126.5q0 -105 -66 -185.5t-170 -124.5q65 -49 98.5 -104t33.5 -129q0 -146 -110 -226.5t-275 -80.5q-152 0 -256.5 69.5t-141.5 194.5l170 49q43 -170 232 -170q92 0 148 35.5t56 101.5q0 54 -37.5 100t-97.5 81.5t-132.5 70.5t-145 74.5t-132.5 85t-97.5 111 t-37.5 143.5zM236 602q0 -45 19 -79.5t62 -65t87 -53.5t121 -63t137 -77q190 81 190 199q0 38 -18 72.5t-46 59.5t-71.5 52.5t-83.5 47t-94.5 47.5t-92.5 51q-85 -25 -147.5 -75t-62.5 -116z" />
<glyph unicode="&#xa8;" horiz-adv-x="870" d="M109 1319q0 44 32 76t78 32t78.5 -32t32.5 -76q0 -46 -32.5 -78.5t-78.5 -32.5t-78 32.5t-32 78.5zM543 1319q0 44 32 76t76 32q46 0 78.5 -32t32.5 -76q0 -46 -32.5 -78.5t-78.5 -32.5q-44 0 -76 32.5t-32 78.5z" />
<glyph unicode="&#xa9;" horiz-adv-x="1634" d="M109 684q0 144 56 275.5t151 226.5t226 151t275 56q115 0 223.5 -36t195.5 -101.5t152.5 -152.5t101.5 -195.5t36 -223.5t-36 -223.5t-101.5 -195.5t-152.5 -152.5t-195.5 -101.5t-223.5 -36q-144 0 -275 56t-226 151t-151 226.5t-56 275.5zM236 684q0 -158 77.5 -292 t211.5 -212t292 -78t292 78t212 212t78 292t-78 292t-212 212t-292 78t-292 -78t-211.5 -212t-77.5 -292zM465 700q0 181 97 284t263 103q106 0 181.5 -45t115.5 -122l-137 -52q-54 101 -164 101q-91 0 -145.5 -68.5t-54.5 -200.5q0 -134 54.5 -203t145.5 -69q120 0 170 92 l135 -49q-43 -74 -120 -119t-185 -45q-170 0 -263 104t-93 289z" />
<glyph unicode="&#xaa;" horiz-adv-x="759" d="M109 979q0 44 21 78t54 55.5t85 36.5t102.5 22.5t117.5 12.5q0 31 -2.5 49.5t-12 40.5t-33 32.5t-60.5 10.5q-100 0 -117 -74l-125 37q24 63 88.5 100t159.5 37q51 0 92.5 -12t76.5 -38.5t54 -75.5t19 -117v-168q0 -69 22 -181h-119l-24 80q-24 -47 -79 -69.5t-118 -22.5 q-93 0 -147.5 46t-54.5 120zM252 989q0 -35 26.5 -53t73.5 -18q69 0 103 40t34 105v22q-137 -15 -187 -35t-50 -61z" />
<glyph unicode="&#xab;" horiz-adv-x="1150" d="M109 514l303 430h202l-305 -430l305 -432h-202zM537 514l301 430h204l-307 -430l307 -432h-204z" />
<glyph unicode="&#xac;" horiz-adv-x="1232" d="M109 649v162h1015v-627h-166v465h-849z" />
<glyph unicode="&#xad;" horiz-adv-x="753" d="M78 426v166h598v-166h-598z" />
<glyph unicode="&#xae;" horiz-adv-x="1634" d="M109 682q0 193 95 357t258 259t355 95q144 0 275.5 -56.5t226.5 -151.5t151 -226.5t56 -276.5q0 -191 -95 -354t-258.5 -258t-355.5 -95q-144 0 -275 56t-226 151t-151 226t-56 274zM236 682q0 -157 77.5 -291t211.5 -212.5t292 -78.5q118 0 226 46.5t186 124.5 t124 185.5t46 225.5q0 159 -77.5 293.5t-212 213.5t-292.5 79t-292 -79t-211.5 -213.5t-77.5 -293.5zM541 332v753h229q90 0 150.5 -9.5t110 -34.5t72.5 -72.5t23 -120.5q0 -28 -6.5 -54.5t-24 -57.5t-56 -57.5t-93.5 -41.5l221 -305h-176l-209 284h-86v-284h-155zM696 735 h109q166 0 166 111q0 65 -45 90t-131 25h-99v-226z" />
<glyph unicode="&#xaf;" horiz-adv-x="782" d="M109 1231v137h565v-137h-565z" />
<glyph unicode="&#xb0;" horiz-adv-x="720" d="M82 1114q0 116 81.5 197.5t196.5 81.5q116 0 197.5 -81.5t81.5 -197.5q0 -115 -81.5 -196.5t-197.5 -81.5t-197 81t-81 197zM211 1114q0 -62 43.5 -105.5t105.5 -43.5q63 0 106.5 43.5t43.5 105.5q0 63 -43.5 106.5t-106.5 43.5q-62 0 -105.5 -43.5t-43.5 -106.5z" />
<glyph unicode="&#xb1;" horiz-adv-x="1185" d="M109 0v162h968v-162h-968zM109 553v162h403v301h162v-301h403v-162h-403v-299h-162v299h-403z" />
<glyph unicode="&#xb2;" horiz-adv-x="782" d="M109 825v113q107 84 171.5 139.5t122.5 115t83.5 109t25.5 95.5q0 53 -31.5 81.5t-85.5 28.5q-51 0 -87.5 -29.5t-43.5 -91.5l-131 37q22 87 92.5 137t175.5 50q111 0 182.5 -54.5t71.5 -150.5q0 -109 -95.5 -220t-285.5 -241h400v-119h-565z" />
<glyph unicode="&#xb3;" horiz-adv-x="784" d="M109 995l127 37q36 -114 149 -114q65 0 107.5 33.5t42.5 90.5q0 21 -5 38t-11.5 29.5t-20 22.5t-23 16.5t-28.5 11t-28.5 7t-31 3.5t-28 1h-28h-22.5v111h11q23 0 37 0.5t41 3t44.5 10t36 20t28 34t9.5 49.5q0 54 -36.5 81t-90.5 27q-114 0 -145 -108l-125 37 q26 82 98.5 128t179.5 46q106 0 183 -53t77 -154q0 -54 -30 -99t-78 -71q61 -24 94 -74.5t33 -111.5q0 -113 -84 -173.5t-209 -60.5q-105 0 -175.5 50t-98.5 132z" />
<glyph unicode="&#xb4;" horiz-adv-x="548" d="M109 1169q3 4 47 62t88.5 115.5t60.5 74.5q21 27 57 27q33 0 54 -21q24 -21 24 -57q0 -31 -26 -57q-30 -34 -162 -144h-143z" />
<glyph unicode="&#xb6;" horiz-adv-x="1040" d="M78 981q0 160 113.5 273.5t273.5 113.5h524v-137h-82v-1561h-166v1561h-192v-1561h-166v932q-132 28 -218.5 134.5t-86.5 244.5z" />
<glyph unicode="&#xb7;" horiz-adv-x="481" d="M109 508q0 54 38.5 92.5t92.5 38.5q55 0 94 -38.5t39 -92.5q0 -56 -38.5 -94.5t-94.5 -38.5q-54 0 -92.5 39t-38.5 94z" />
<glyph unicode="&#xb8;" horiz-adv-x="595" d="M150 -330l28 72q68 -29 119 -29q49 0 76.5 21.5t27.5 48.5q0 22 -18.5 36.5t-54.5 14.5q-22 0 -64 -10q-26 -7 -41.5 5.5t-15.5 33.5q0 11 6 20l104 168l70 -43l-61 -100q46 8 61 8q67 0 104 -36t37 -89q0 -64 -52 -113t-146 -49q-81 0 -180 41z" />
<glyph unicode="&#xb9;" horiz-adv-x="524" d="M109 1399v96q156 0 192 100h115v-770h-137v574h-170z" />
<glyph unicode="&#xba;" horiz-adv-x="780" d="M117 1116q0 145 81.5 223t198.5 78q118 0 200.5 -78t82.5 -223t-82.5 -223t-200.5 -78q-117 0 -198.5 78t-81.5 223zM258 1116q0 -90 38.5 -140t100.5 -50q63 0 102.5 50t39.5 140t-39.5 140.5t-102.5 50.5q-62 0 -100.5 -50.5t-38.5 -140.5z" />
<glyph unicode="&#xbb;" horiz-adv-x="1150" d="M109 82l305 432l-305 430h204l301 -430l-301 -432h-204zM537 82l305 432l-305 430h202l303 -430l-303 -432h-202z" />
<glyph unicode="&#xbc;" horiz-adv-x="1691" d="M109 1169v99q157 0 192 100h117v-770h-139v571h-170zM236 0l958 1368h180l-956 -1368h-182zM932 176v111l381 483h137v-477h133v-117h-133v-176h-139v176h-379zM1081 293h230v299z" />
<glyph unicode="&#xbd;" horiz-adv-x="1662" d="M109 1169v99q157 0 192 100h115v-770h-137v571h-170zM236 0l958 1368h180l-958 -1368h-180zM991 0v111q89 71 140 113.5t108.5 96.5t87 91t49 78.5t19.5 78.5q0 53 -31.5 82t-85.5 29q-50 0 -87.5 -29.5t-45.5 -91.5l-131 39q24 86 94.5 135t175.5 49q111 0 182.5 -54 t71.5 -148q0 -111 -95.5 -222t-285.5 -239h397v-119h-563z" />
<glyph unicode="&#xbe;" horiz-adv-x="1777" d="M109 778l127 37q35 -115 149 -115q65 0 107.5 34t42.5 91q0 21 -5 38t-11.5 29.5t-20 22.5t-23 16.5t-28.5 11t-28.5 7t-31 3.5t-28 1h-28h-22.5v109h11q23 0 37 0.5t41 3t44.5 10t36 20t28 34t9.5 49.5q0 52 -37 80t-90 28q-113 0 -145 -108l-125 37q27 83 99.5 129.5 t178.5 46.5q67 0 124 -21t96.5 -70t39.5 -118q0 -55 -30 -99.5t-78 -70.5q61 -22 94 -73t33 -112q0 -113 -84 -173t-209 -60q-105 0 -175.5 50t-98.5 132zM322 0l960 1368h180l-960 -1368h-180zM1018 176v111l381 483h139v-477h131v-117h-131v-176h-141v176h-379zM1167 293 h230v299z" />
<glyph unicode="&#xbf;" horiz-adv-x="1064" d="M102 -23q0 226 254 390q96 61 128 100.5t32 112.5v69h176v-74q0 -59 -13.5 -104t-46 -84t-71.5 -69.5t-104 -71.5q-83 -51 -128.5 -112.5t-45.5 -147.5q0 -88 69.5 -142.5t179.5 -54.5q68 0 120.5 19.5t85 52.5t51.5 71t26 82l168 -49q-32 -147 -155 -233t-300 -86 q-82 0 -156.5 20.5t-136 59.5t-97.5 104t-36 147zM467 932q0 54 39 92.5t94 38.5q54 0 92.5 -38.5t38.5 -92.5q0 -55 -38.5 -94t-92.5 -39q-56 0 -94.5 38.5t-38.5 94.5z" />
<glyph unicode="&#xc0;" horiz-adv-x="1282" d="M20 0l515 1370h215l512 -1370h-205l-105 299h-622l-105 -299h-205zM369 1696q0 31 21 52t52 21q41 0 64 -26l217 -219h-156q-2 1 -38 22.5t-74 45.5t-54 38q-32 29 -32 66zM389 465h504l-252 711z" />
<glyph unicode="&#xc1;" horiz-adv-x="1282" d="M20 0l515 1370h215l512 -1370h-205l-105 299h-622l-105 -299h-205zM389 465h504l-252 711zM567 1524q2 2 53.5 55.5t100.5 103t65 62.5q27 24 60 24q31 0 52.5 -21t21.5 -52q0 -40 -33 -66q-16 -14 -53 -38t-73.5 -45.5t-37.5 -22.5h-156z" />
<glyph unicode="&#xc2;" horiz-adv-x="1282" d="M20 0l515 1370h215l512 -1370h-205l-105 299h-622l-105 -299h-205zM311 1530l230 207q42 39 102 39q58 0 100 -39l230 -207h-193l-139 125l-137 -125h-193zM389 465h504l-252 711z" />
<glyph unicode="&#xc3;" horiz-adv-x="1282" d="M20 0l515 1370h215l512 -1370h-205l-105 299h-622l-105 -299h-205zM305 1538q18 106 75.5 159.5t141.5 53.5q49 0 94 -22t85 -44t75 -22q53 0 80 47q22 39 59 39q25 0 44.5 -18.5t19.5 -44.5q0 -44 -56.5 -98t-142.5 -54q-48 0 -95 22t-88 44t-73 22q-37 0 -59 -22 t-27 -62h-133zM389 465h504l-252 711z" />
<glyph unicode="&#xc4;" horiz-adv-x="1282" d="M20 0l515 1370h215l512 -1370h-205l-105 299h-622l-105 -299h-205zM315 1626q0 44 32.5 76.5t78.5 32.5t78.5 -32.5t32.5 -76.5q0 -46 -32.5 -78t-78.5 -32t-78.5 32t-32.5 78zM389 465h504l-252 711zM750 1626q0 44 32 76.5t76 32.5q46 0 78.5 -32.5t32.5 -76.5 q0 -46 -32.5 -78t-78.5 -32q-44 0 -76 32t-32 78z" />
<glyph unicode="&#xc5;" horiz-adv-x="1282" d="M20 0l492 1313q-94 68 -94 180q0 91 66 157t161 66q93 0 156 -65.5t63 -157.5q0 -55 -24.5 -103t-67.5 -79l490 -1311h-205l-105 299h-622l-105 -299h-205zM389 465h504l-252 711zM535 1493q0 -43 31 -73.5t75 -30.5t75.5 30.5t31.5 73.5t-31.5 73.5t-75.5 30.5 t-75 -30.5t-31 -73.5z" />
<glyph unicode="&#xc6;" horiz-adv-x="2043" d="M20 0l996 1368h950v-166h-737v-416h545v-165h-545v-455h737v-166h-930v297h-579l-213 -297h-224zM571 463h465v655z" />
<glyph unicode="&#xc7;" horiz-adv-x="1374" d="M121 686q0 320 173.5 513.5t463.5 193.5q174 0 311 -81t207 -229l-168 -61q-48 96 -139.5 152.5t-220.5 56.5q-189 0 -310 -143.5t-121 -401.5q0 -254 121 -401.5t316 -147.5q129 0 221 55.5t141 153.5l168 -61q-71 -147 -209.5 -227t-318.5 -83l-41 -67q46 8 61 8 q67 0 104.5 -36t37.5 -89q0 -64 -52.5 -113t-146.5 -49q-81 0 -180 41l28 72q68 -29 119 -29q49 0 77 21.5t28 48.5q0 22 -19 36.5t-55 14.5q-22 0 -64 -10q-26 -7 -41.5 5.5t-15.5 33.5q0 11 6 20l60 97q-253 27 -397 219.5t-144 486.5z" />
<glyph unicode="&#xc8;" horiz-adv-x="1161" d="M156 0v1368h927v-166h-735v-416h543v-165h-543v-455h735v-166h-927zM397 1696q0 31 21.5 52t52.5 21q41 0 64 -26l217 -219h-156q-2 1 -38 22.5t-74 45.5t-54 38q-33 30 -33 66z" />
<glyph unicode="&#xc9;" horiz-adv-x="1161" d="M156 0v1368h927v-166h-735v-416h543v-165h-543v-455h735v-166h-927zM543 1524q2 2 53.5 55.5t100.5 103t65 62.5q27 24 59 24q31 0 52.5 -21t21.5 -52q0 -40 -33 -66q-16 -14 -53 -38t-73.5 -45.5t-37.5 -22.5h-155z" />
<glyph unicode="&#xca;" horiz-adv-x="1161" d="M156 0v1368h927v-166h-735v-416h543v-165h-543v-455h735v-166h-927zM291 1536l229 207q42 39 103 39q58 0 100 -39l229 -207h-192l-139 125l-138 -125h-192z" />
<glyph unicode="&#xcb;" horiz-adv-x="1161" d="M156 0v1368h927v-166h-735v-416h543v-165h-543v-455h735v-166h-927zM264 1630q0 44 32.5 76.5t78.5 32.5q45 0 77.5 -32.5t32.5 -76.5q0 -46 -32 -78t-78 -32t-78.5 32t-32.5 78zM698 1630q0 44 32.5 76.5t76.5 32.5q46 0 78.5 -32.5t32.5 -76.5q0 -46 -32.5 -78 t-78.5 -32q-45 0 -77 32t-32 78z" />
<glyph unicode="&#xcc;" horiz-adv-x="847" d="M135 0v152h193v1065h-193v151h578v-151h-193v-1065h193v-152h-578zM160 1696q0 31 21 52t52 21q41 0 64 -26l217 -219h-156q-2 1 -37.5 22.5t-73.5 45.5t-54 38q-33 30 -33 66z" />
<glyph unicode="&#xcd;" horiz-adv-x="847" d="M135 0v152h193v1065h-193v151h578v-151h-193v-1065h193v-152h-578zM340 1524q2 2 53.5 55.5t100.5 103t65 62.5q27 24 59 24q31 0 52.5 -21t21.5 -52q0 -40 -33 -66q-16 -14 -53 -38t-73 -45.5t-37 -22.5h-156z" />
<glyph unicode="&#xce;" horiz-adv-x="847" d="M94 1530l230 207q42 39 102 39q58 0 100 -39l230 -207h-193l-139 125l-137 -125h-193zM135 0v152h193v1065h-193v151h578v-151h-193v-1065h193v-152h-578z" />
<glyph unicode="&#xcf;" horiz-adv-x="847" d="M98 1626q0 44 32.5 76.5t78.5 32.5q45 0 77.5 -32.5t32.5 -76.5q0 -46 -32 -78t-78 -32t-78.5 32t-32.5 78zM135 0v152h193v1065h-193v151h578v-151h-193v-1065h193v-152h-578zM532 1626q0 44 32.5 76.5t76.5 32.5q46 0 78.5 -32.5t32.5 -76.5q0 -46 -32.5 -78t-78.5 -32 q-45 0 -77 32t-32 78z" />
<glyph unicode="&#xd0;" horiz-adv-x="1458" d="M41 621v163h195v584h372q135 0 245 -20.5t205.5 -70t160 -126.5t101 -194.5t36.5 -270.5q0 -129 -25 -232.5t-73 -178.5t-113 -128.5t-150.5 -85.5t-180 -46.5t-206.5 -14.5h-372v621h-195zM428 162h176q67 0 120.5 4.5t113 18t104.5 36.5t87.5 63t69.5 94t43.5 132 t16.5 176q0 97 -16.5 174.5t-43.5 131t-69.5 93t-87.5 62.5t-104.5 36.5t-113 18t-120.5 4.5h-176v-422h287v-163h-287v-459z" />
<glyph unicode="&#xd1;" horiz-adv-x="1411" d="M156 0v1368h284l623 -1163v1163h192v-1368h-282l-625 1169v-1169h-192zM367 1538q18 106 75.5 159.5t141.5 53.5q49 0 94 -22t85 -44t75 -22q53 0 80 47q22 39 59 39q25 0 44 -18.5t19 -44.5q0 -44 -56 -98t-142 -54q-48 0 -95 22t-88 44t-73 22q-37 0 -59 -22t-27 -62 h-133z" />
<glyph unicode="&#xd2;" horiz-adv-x="1488" d="M102 686q0 205 77.5 365t224 251t339.5 91q194 0 341 -91t224.5 -251t77.5 -365q0 -206 -77.5 -367t-224.5 -252.5t-341 -91.5q-193 0 -339.5 91.5t-224 252.5t-77.5 367zM299 686q0 -257 125.5 -403t318.5 -146q195 0 321 146t126 403q0 129 -34.5 233t-95 172t-142 104 t-175.5 36q-193 0 -318.5 -144.5t-125.5 -400.5zM477 1696q0 31 21.5 52t52.5 21q40 0 63 -26l217 -219h-155q-2 1 -38 22.5t-74 45.5t-54 38q-33 30 -33 66z" />
<glyph unicode="&#xd3;" horiz-adv-x="1488" d="M102 686q0 205 77.5 365t224 251t339.5 91q194 0 341 -91t224.5 -251t77.5 -365q0 -206 -77.5 -367t-224.5 -252.5t-341 -91.5q-193 0 -339.5 91.5t-224 252.5t-77.5 367zM299 686q0 -257 125.5 -403t318.5 -146q195 0 321 146t126 403q0 129 -34.5 233t-95 172t-142 104 t-175.5 36q-193 0 -318.5 -144.5t-125.5 -400.5zM662 1524q2 2 53.5 55.5t100.5 103t65 62.5q27 24 59 24q31 0 52.5 -21t21.5 -52q0 -40 -33 -66q-16 -14 -53 -38t-73.5 -45.5t-37.5 -22.5h-155z" />
<glyph unicode="&#xd4;" horiz-adv-x="1488" d="M102 686q0 205 77.5 365t224 251t339.5 91q194 0 341 -91t224.5 -251t77.5 -365q0 -206 -77.5 -367t-224.5 -252.5t-341 -91.5q-193 0 -339.5 91.5t-224 252.5t-77.5 367zM299 686q0 -257 125.5 -403t318.5 -146q195 0 321 146t126 403q0 129 -34.5 233t-95 172t-142 104 t-175.5 36q-193 0 -318.5 -144.5t-125.5 -400.5zM414 1530l229 207q42 39 102 39q59 0 101 -39l229 -207h-192l-140 125l-137 -125h-192z" />
<glyph unicode="&#xd5;" horiz-adv-x="1488" d="M102 686q0 205 77.5 365t224 251t339.5 91q194 0 341 -91t224.5 -251t77.5 -365q0 -206 -77.5 -367t-224.5 -252.5t-341 -91.5q-193 0 -339.5 91.5t-224 252.5t-77.5 367zM299 686q0 -257 125.5 -403t318.5 -146q195 0 321 146t126 403q0 129 -34.5 233t-95 172t-142 104 t-175.5 36q-193 0 -318.5 -144.5t-125.5 -400.5zM399 1540q18 106 75.5 159.5t141.5 53.5q49 0 94 -22t85 -44t75 -22q53 0 80 47q22 39 60 39q25 0 44 -18.5t19 -44.5q0 -44 -56.5 -98t-142.5 -54q-48 0 -95 22t-88 44t-73 22q-37 0 -59 -22t-27 -62h-133z" />
<glyph unicode="&#xd6;" horiz-adv-x="1488" d="M102 686q0 205 77.5 365t224 251t339.5 91q194 0 341 -91t224.5 -251t77.5 -365q0 -206 -77.5 -367t-224.5 -252.5t-341 -91.5q-193 0 -339.5 91.5t-224 252.5t-77.5 367zM299 686q0 -257 125.5 -403t318.5 -146q195 0 321 146t126 403q0 129 -34.5 233t-95 172t-142 104 t-175.5 36q-193 0 -318.5 -144.5t-125.5 -400.5zM418 1630q0 44 32 76.5t78 32.5t78.5 -32.5t32.5 -76.5q0 -46 -32.5 -78t-78.5 -32t-78 32t-32 78zM852 1630q0 44 32.5 76.5t76.5 32.5q45 0 77.5 -32.5t32.5 -76.5q0 -46 -32 -78t-78 -32q-45 0 -77 32t-32 78z" />
<glyph unicode="&#xd7;" horiz-adv-x="1081" d="M109 199l315 313l-315 315l116 119l316 -315l315 315l117 -119l-314 -315l314 -313l-117 -119l-315 315l-316 -315z" />
<glyph unicode="&#xd8;" horiz-adv-x="1488" d="M102 682q0 206 77.5 367t224 252.5t339.5 91.5q244 0 410 -144l109 129l79 -65l-114 -137q159 -195 159 -494q0 -205 -77.5 -365t-224.5 -251t-341 -91q-248 0 -415 148l-117 -135l-78 67l123 144q-154 193 -154 483zM299 682q0 -203 82 -336l655 766q-118 115 -293 115 q-193 0 -318.5 -144t-125.5 -401zM444 260q120 -123 299 -123q194 0 320.5 145t126.5 400q0 207 -88 348z" />
<glyph unicode="&#xd9;" horiz-adv-x="1413" d="M156 571v797h192v-811q0 -209 84 -312.5t275 -103.5t274.5 103.5t83.5 312.5v811h192v-797q0 -306 -128.5 -451t-421.5 -145q-292 0 -421.5 145.5t-129.5 450.5zM440 1696q0 31 21.5 52t52.5 21q41 0 64 -26l217 -219h-156q-2 1 -38 22.5t-74 45.5t-54 38q-33 30 -33 66z " />
<glyph unicode="&#xda;" horiz-adv-x="1413" d="M156 571v797h192v-811q0 -209 84 -312.5t275 -103.5t274.5 103.5t83.5 312.5v811h192v-797q0 -306 -128.5 -451t-421.5 -145q-292 0 -421.5 145.5t-129.5 450.5zM625 1524q2 2 53.5 55.5t100.5 103t65 62.5q27 24 59 24q31 0 52.5 -21t21.5 -52q0 -40 -33 -66 q-16 -14 -53 -38t-73.5 -45.5t-37.5 -22.5h-155z" />
<glyph unicode="&#xdb;" horiz-adv-x="1413" d="M156 571v797h192v-811q0 -209 84 -312.5t275 -103.5t274.5 103.5t83.5 312.5v811h192v-797q0 -306 -128.5 -451t-421.5 -145q-292 0 -421.5 145.5t-129.5 450.5zM377 1530l229 207q42 39 103 39q58 0 100 -39l229 -207h-192l-139 125l-138 -125h-192z" />
<glyph unicode="&#xdc;" horiz-adv-x="1413" d="M156 571v797h192v-811q0 -209 84 -312.5t275 -103.5t274.5 103.5t83.5 312.5v811h192v-797q0 -306 -128.5 -451t-421.5 -145q-292 0 -421.5 145.5t-129.5 450.5zM381 1632q0 44 32.5 76.5t78.5 32.5t78 -32.5t32 -76.5q0 -46 -32 -78t-78 -32t-78.5 32t-32.5 78z M815 1632q0 44 32.5 76.5t76.5 32.5q46 0 78 -32.5t32 -76.5q0 -46 -32 -78t-78 -32q-44 0 -76.5 32t-32.5 78z" />
<glyph unicode="&#xdd;" horiz-adv-x="1218" d="M20 1368h211l379 -661l377 661h211l-491 -838v-530h-193v530zM528 1524q1 1 53.5 55t101.5 103.5t65 62.5q27 24 59 24q31 0 52.5 -21t21.5 -52q0 -40 -33 -66q-16 -14 -53 -38t-73.5 -45.5t-37.5 -22.5h-156z" />
<glyph unicode="&#xde;" horiz-adv-x="1179" d="M156 0v1368h172v-287h260q96 0 170 -9.5t141 -34.5t110 -66.5t68 -107.5t25 -156t-25 -156.5t-68 -107.5t-110 -66t-140.5 -34t-170.5 -9h-260v-334h-172zM328 500h278q57 0 95.5 3t80 15t65.5 33.5t40 60t16 93.5q0 54 -15.5 93t-40.5 61.5t-65.5 35t-80 16.5t-95.5 4 h-278v-415z" />
<glyph unicode="&#xdf;" horiz-adv-x="1222" d="M156 0v928q0 47 4 87.5t16.5 89.5t33 88t57.5 78t86.5 64.5t122.5 41.5t163 16q186 0 306 -89.5t120 -236.5q0 -211 -205 -297q285 -73 285 -367q0 -116 -43.5 -203t-119 -135.5t-167 -70.5t-197.5 -19l-47 158q43 -6 80 -6q142 0 226 69.5t84 202.5q0 148 -102 212.5 t-288 64.5v155q153 0 236.5 56.5t83.5 159.5q0 91 -70 147.5t-184 56.5q-163 0 -236 -74t-73 -249v-928h-172z" />
<glyph unicode="&#xe0;" horiz-adv-x="1077" d="M78 268q0 71 32.5 125.5t87.5 91.5t146 65t187.5 45t232.5 32q9 268 -229 268q-91 0 -150 -42t-76 -116l-166 49q41 116 146 181t243 65q210 0 306 -98.5t98 -312.5l2 -238q2 -209 35 -383h-158l-41 139q-98 -164 -346 -164q-150 0 -250 79t-100 214zM268 272 q0 -73 52.5 -116t144.5 -43q64 0 117 15.5t98.5 50t71.5 97.5t26 150v63q-101 -11 -173.5 -22t-139.5 -28.5t-108 -39.5t-65 -54t-24 -73zM285 1370q0 32 22.5 55t54.5 23q42 0 64 -31l190 -248h-143q-117 95 -154 134q-34 36 -34 67z" />
<glyph unicode="&#xe1;" horiz-adv-x="1077" d="M78 268q0 71 32.5 125.5t87.5 91.5t146 65t187.5 45t232.5 32q9 268 -229 268q-91 0 -150 -42t-76 -116l-166 49q41 116 146 181t243 65q210 0 306 -98.5t98 -312.5l2 -238q2 -209 35 -383h-158l-41 139q-98 -164 -346 -164q-150 0 -250 79t-100 214zM268 272 q0 -73 52.5 -116t144.5 -43q64 0 117 15.5t98.5 50t71.5 97.5t26 150v63q-101 -11 -173.5 -22t-139.5 -28.5t-108 -39.5t-65 -54t-24 -73zM455 1169q3 4 47 62t88.5 115.5t60.5 74.5q21 27 58 27q32 0 53 -21q24 -21 24 -57q0 -31 -26 -57q-30 -34 -162 -144h-143z" />
<glyph unicode="&#xe2;" horiz-adv-x="1077" d="M78 268q0 71 32.5 125.5t87.5 91.5t146 65t187.5 45t232.5 32q9 268 -229 268q-91 0 -150 -42t-76 -116l-166 49q41 116 146 181t243 65q210 0 306 -98.5t98 -312.5l2 -238q2 -209 35 -383h-158l-41 139q-98 -164 -346 -164q-150 0 -250 79t-100 214zM213 1178l229 206 q42 39 103 39q58 0 100 -39l229 -206h-192l-139 125l-137 -125h-193zM268 272q0 -73 52.5 -116t144.5 -43q64 0 117 15.5t98.5 50t71.5 97.5t26 150v63q-101 -11 -173.5 -22t-139.5 -28.5t-108 -39.5t-65 -54t-24 -73z" />
<glyph unicode="&#xe3;" horiz-adv-x="1077" d="M78 268q0 71 32.5 125.5t87.5 91.5t146 65t187.5 45t232.5 32q9 268 -229 268q-91 0 -150 -42t-76 -116l-166 49q41 116 146 181t243 65q210 0 306 -98.5t98 -312.5l2 -238q2 -209 35 -383h-158l-41 139q-98 -164 -346 -164q-150 0 -250 79t-100 214zM203 1182 q18 106 75.5 159.5t141.5 53.5q49 0 94 -22t85 -44t75 -22q53 0 80 47q22 39 59 39q25 0 44.5 -19t19.5 -45q0 -18 -13.5 -43t-37 -49.5t-63.5 -41.5t-85 -17q-48 0 -95 22t-88 44t-73 22q-37 0 -59 -22t-27 -62h-133zM268 272q0 -73 52.5 -116t144.5 -43q64 0 117 15.5 t98.5 50t71.5 97.5t26 150v63q-101 -11 -173.5 -22t-139.5 -28.5t-108 -39.5t-65 -54t-24 -73z" />
<glyph unicode="&#xe4;" horiz-adv-x="1077" d="M78 268q0 71 32.5 125.5t87.5 91.5t146 65t187.5 45t232.5 32q9 268 -229 268q-91 0 -150 -42t-76 -116l-166 49q41 116 146 181t243 65q210 0 306 -98.5t98 -312.5l2 -238q2 -209 35 -383h-158l-41 139q-98 -164 -346 -164q-150 0 -250 79t-100 214zM215 1319 q0 44 32.5 76t78.5 32t78 -32t32 -76q0 -46 -32 -78.5t-78 -32.5t-78.5 32.5t-32.5 78.5zM268 272q0 -73 52.5 -116t144.5 -43q64 0 117 15.5t98.5 50t71.5 97.5t26 150v63q-101 -11 -173.5 -22t-139.5 -28.5t-108 -39.5t-65 -54t-24 -73zM649 1319q0 44 32.5 76t76.5 32 q46 0 78 -32t32 -76q0 -46 -32 -78.5t-78 -32.5q-44 0 -76.5 32.5t-32.5 78.5z" />
<glyph unicode="&#xe5;" horiz-adv-x="1077" d="M78 268q0 71 32.5 125.5t87.5 91.5t146 65t187.5 45t232.5 32q9 268 -229 268q-91 0 -150 -42t-76 -116l-166 49q41 116 146 181t243 65q210 0 306 -98.5t98 -312.5l2 -238q2 -209 35 -383h-158l-41 139q-98 -164 -346 -164q-150 0 -250 79t-100 214zM268 272 q0 -73 52.5 -116t144.5 -43q64 0 117 15.5t98.5 50t71.5 97.5t26 150v63q-101 -11 -173.5 -22t-139.5 -28.5t-108 -39.5t-65 -54t-24 -73zM319 1368q0 91 66.5 157t161.5 66q93 0 156 -65.5t63 -157.5t-63 -157.5t-156 -65.5q-95 0 -161.5 66t-66.5 157zM436 1368 q0 -43 31.5 -73.5t75.5 -30.5t75 30.5t31 73.5t-31 74t-75 31t-75.5 -31t-31.5 -74z" />
<glyph unicode="&#xe6;" horiz-adv-x="1789" d="M78 268q0 89 52 154t147.5 103t216 55.5t270.5 17.5q0 3 0.5 22t0.5 31t-2 35.5t-6 40t-12 40t-19 39.5t-28.5 33.5t-40 28.5t-54 18t-68.5 7q-91 0 -150 -42t-76 -116l-166 49q41 116 149.5 182t239.5 66q268 0 355 -164q68 79 163 121.5t207 42.5q118 0 213.5 -48.5 t154 -129t86.5 -182.5t20 -211h-783q3 -74 25 -133t54 -95.5t74 -61t82 -34.5t81 -10q157 0 237 100l166 -49q-60 -93 -163.5 -148t-239.5 -55q-137 0 -242 54t-168 151q-56 -93 -164 -149t-262 -56q-150 0 -250 79t-100 214zM268 272q0 -73 53 -117t144 -44q59 0 107.5 12 t79.5 33t56 47.5t37 56t21.5 59t10 55.5t2.5 47t-1 32v3v2.5v2.5q-510 0 -510 -189zM952 598h598q-3 114 -83.5 200.5t-209.5 86.5q-125 0 -210 -71t-95 -216z" />
<glyph unicode="&#xe7;" horiz-adv-x="1048" d="M102 504q0 231 135 379.5t357 148.5q130 0 230 -64.5t153 -164.5l-158 -58q-34 62 -97 99t-140 37q-124 0 -208.5 -96.5t-84.5 -278.5t85 -280.5t208 -98.5q80 0 143 36.5t98 96.5l158 -57q-58 -100 -163.5 -163.5t-233.5 -64.5l-43 -67q46 8 61 8q67 0 104 -36t37 -89 q0 -64 -52 -113t-146 -49q-81 0 -180 41l28 72q68 -29 119 -29q49 0 76.5 21.5t27.5 48.5q0 22 -18.5 36.5t-54.5 14.5q-22 0 -64 -10q-26 -7 -41.5 5.5t-15.5 33.5q0 11 6 20l61 99q-179 29 -283 171t-104 351z" />
<glyph unicode="&#xe8;" horiz-adv-x="1103" d="M78 506q0 237 140 381.5t353 144.5q118 0 213 -48t153 -128.5t86.5 -182.5t20.5 -212h-782q2 -74 23.5 -133t54 -95.5t74 -61t81.5 -34.5t80 -10q161 0 238 100l166 -49q-58 -93 -162 -148t-242 -55q-232 0 -364.5 149.5t-132.5 381.5zM264 598h598q-2 114 -82 200.5 t-209 86.5q-125 0 -210.5 -71t-96.5 -216zM301 1370q0 32 23 55t55 23q41 0 63 -31l191 -248h-144q-112 91 -153 134q-35 37 -35 67z" />
<glyph unicode="&#xe9;" horiz-adv-x="1103" d="M78 506q0 237 140 381.5t353 144.5q118 0 213 -48t153 -128.5t86.5 -182.5t20.5 -212h-782q2 -74 23.5 -133t54 -95.5t74 -61t81.5 -34.5t80 -10q161 0 238 100l166 -49q-58 -93 -162 -148t-242 -55q-232 0 -364.5 149.5t-132.5 381.5zM264 598h598q-2 114 -82 200.5 t-209 86.5q-125 0 -210.5 -71t-96.5 -216zM489 1169q3 4 47 62t89 115.5t61 74.5q21 27 57 27q33 0 54 -21q24 -21 24 -57q0 -31 -26 -57q-30 -34 -162 -144h-144z" />
<glyph unicode="&#xea;" horiz-adv-x="1103" d="M78 506q0 237 140 381.5t353 144.5q118 0 213 -48t153 -128.5t86.5 -182.5t20.5 -212h-782q2 -74 23.5 -133t54 -95.5t74 -61t81.5 -34.5t80 -10q161 0 238 100l166 -49q-58 -93 -162 -148t-242 -55q-232 0 -364.5 149.5t-132.5 381.5zM223 1178l230 206q42 39 102 39 q58 0 100 -39l230 -206h-193l-139 125l-137 -125h-193zM264 598h598q-2 114 -82 200.5t-209 86.5q-125 0 -210.5 -71t-96.5 -216z" />
<glyph unicode="&#xeb;" horiz-adv-x="1103" d="M78 506q0 237 140 381.5t353 144.5q118 0 213 -48t153 -128.5t86.5 -182.5t20.5 -212h-782q2 -74 23.5 -133t54 -95.5t74 -61t81.5 -34.5t80 -10q161 0 238 100l166 -49q-58 -93 -162 -148t-242 -55q-232 0 -364.5 149.5t-132.5 381.5zM227 1319q0 44 32.5 76t78.5 32 t78.5 -32t32.5 -76q0 -46 -32.5 -78.5t-78.5 -32.5t-78.5 32.5t-32.5 78.5zM264 598h598q-2 114 -82 200.5t-209 86.5q-125 0 -210.5 -71t-96.5 -216zM662 1319q0 44 32 76t76 32q46 0 78.5 -32t32.5 -76q0 -46 -32.5 -78.5t-78.5 -32.5q-44 0 -76 32.5t-32 78.5z" />
<glyph unicode="&#xec;" horiz-adv-x="569" d="M57 1370q0 32 23 55t55 23q42 0 64 -31l190 -248h-143q-117 95 -154 134q-35 37 -35 67zM92 879v137h314v-1016h-173v879h-141z" />
<glyph unicode="&#xed;" horiz-adv-x="569" d="M92 879v137h314v-1016h-173v879h-141zM233 1167q3 4 47 62t89 115.5t61 74.5q21 27 57 27q33 0 54 -21q24 -21 24 -57q0 -31 -26 -57q-30 -34 -162 -144h-144z" />
<glyph unicode="&#xee;" horiz-adv-x="569" d="M-27 1178l230 206q42 39 102 39q59 0 101 -39l229 -206h-193l-139 125l-137 -125h-193zM92 879v137h314v-1016h-173v879h-141z" />
<glyph unicode="&#xef;" horiz-adv-x="569" d="M-43 1307q0 44 32.5 76t78.5 32t78 -32t32 -76q0 -46 -32 -78.5t-78 -32.5t-78.5 32.5t-32.5 78.5zM92 879v137h314v-1016h-173v879h-141zM391 1307q0 44 32.5 76t76.5 32q46 0 78 -32t32 -76q0 -46 -32 -78.5t-78 -32.5q-44 0 -76.5 32.5t-32.5 78.5z" />
<glyph unicode="&#xf0;" horiz-adv-x="1161" d="M78 446q0 205 124.5 335t317.5 130q129 0 220 -51.5t141 -138.5q-17 267 -152 399l-149 -149l-74 73l135 136q-101 53 -283 53v158q247 0 402 -93l94 95l74 -74l-82 -82q105 -95 159 -260.5t54 -355.5q0 -104 -14.5 -194.5t-50 -175t-91 -144.5t-143.5 -96t-201 -36 q-107 0 -198 38t-152.5 102.5t-96 150t-34.5 180.5zM262 440q0 -142 81.5 -230.5t215.5 -88.5q135 0 217 88.5t82 230.5t-82 231t-217 89q-134 0 -215.5 -89t-81.5 -231z" />
<glyph unicode="&#xf1;" horiz-adv-x="1118" d="M143 0v1016h127l45 -154q101 170 328 170q336 0 336 -389v-643h-172v592q0 52 -4 91t-18 79t-37.5 65.5t-65 41.5t-98.5 16q-126 0 -197.5 -86.5t-71.5 -247.5v-551h-172zM219 1182q18 106 75.5 159.5t141.5 53.5q49 0 94 -22t85 -44t75 -22q53 0 80 47q22 39 59 39 q25 0 44.5 -19t19.5 -45q0 -18 -13.5 -43t-37 -49.5t-63.5 -41.5t-85 -17q-48 0 -95 22t-88 44t-73 22q-37 0 -59 -22t-27 -62h-133z" />
<glyph unicode="&#xf2;" d="M78 504q0 106 28.5 195t76 149.5t110.5 103t131.5 61.5t140.5 19q73 0 141.5 -19.5t132 -61.5t111 -102.5t75.5 -149t28 -195.5t-28 -196t-75.5 -149.5t-111 -102.5t-132.5 -61.5t-141 -19.5q-90 0 -174.5 32t-155.5 94t-114 166.5t-43 236.5zM262 504q0 -94 26.5 -168.5 t71 -119t97 -67t108.5 -22.5q57 0 109.5 22.5t96.5 67t70.5 119t26.5 168.5t-26.5 168.5t-70.5 119t-96.5 67t-109.5 22.5q-56 0 -108.5 -22.5t-97 -67t-71 -119t-26.5 -168.5zM301 1370q0 32 23 55t55 23q41 0 63 -31l191 -248h-144q-112 91 -153 134q-35 37 -35 67z" />
<glyph unicode="&#xf3;" d="M78 504q0 106 28.5 195t76 149.5t110.5 103t131.5 61.5t140.5 19q73 0 141.5 -19.5t132 -61.5t111 -102.5t75.5 -149t28 -195.5t-28 -196t-75.5 -149.5t-111 -102.5t-132.5 -61.5t-141 -19.5q-90 0 -174.5 32t-155.5 94t-114 166.5t-43 236.5zM262 504q0 -94 26.5 -168.5 t71 -119t97 -67t108.5 -22.5q57 0 109.5 22.5t96.5 67t70.5 119t26.5 168.5t-26.5 168.5t-70.5 119t-96.5 67t-109.5 22.5q-56 0 -108.5 -22.5t-97 -67t-71 -119t-26.5 -168.5zM494 1169q3 4 47 62t88.5 115.5t60.5 74.5q21 27 58 27q32 0 53 -21q24 -21 24 -57 q0 -31 -26 -57q-30 -34 -162 -144h-143z" />
<glyph unicode="&#xf4;" d="M78 504q0 106 28.5 195t76 149.5t110.5 103t131.5 61.5t140.5 19q73 0 141.5 -19.5t132 -61.5t111 -102.5t75.5 -149t28 -195.5t-28 -196t-75.5 -149.5t-111 -102.5t-132.5 -61.5t-141 -19.5q-90 0 -174.5 32t-155.5 94t-114 166.5t-43 236.5zM236 1178l229 206 q42 39 102 39q59 0 101 -39l229 -206h-192l-140 125l-137 -125h-192zM262 504q0 -94 26.5 -168.5t71 -119t97 -67t108.5 -22.5q57 0 109.5 22.5t96.5 67t70.5 119t26.5 168.5t-26.5 168.5t-70.5 119t-96.5 67t-109.5 22.5q-56 0 -108.5 -22.5t-97 -67t-71 -119t-26.5 -168.5 z" />
<glyph unicode="&#xf5;" d="M78 504q0 106 28.5 195t76 149.5t110.5 103t131.5 61.5t140.5 19q73 0 141.5 -19.5t132 -61.5t111 -102.5t75.5 -149t28 -195.5t-28 -196t-75.5 -149.5t-111 -102.5t-132.5 -61.5t-141 -19.5q-90 0 -174.5 32t-155.5 94t-114 166.5t-43 236.5zM219 1182 q18 106 75.5 159.5t141.5 53.5q49 0 94 -22t85 -44t75 -22q53 0 80 47q22 39 59 39q25 0 44.5 -19t19.5 -45q0 -18 -13.5 -43t-37 -49.5t-63.5 -41.5t-85 -17q-48 0 -95 22t-88 44t-73 22q-37 0 -59 -22t-27 -62h-133zM262 504q0 -94 26.5 -168.5t71 -119t97 -67 t108.5 -22.5q57 0 109.5 22.5t96.5 67t70.5 119t26.5 168.5t-26.5 168.5t-70.5 119t-96.5 67t-109.5 22.5q-56 0 -108.5 -22.5t-97 -67t-71 -119t-26.5 -168.5z" />
<glyph unicode="&#xf6;" d="M78 504q0 106 28.5 195t76 149.5t110.5 103t131.5 61.5t140.5 19q73 0 141.5 -19.5t132 -61.5t111 -102.5t75.5 -149t28 -195.5t-28 -196t-75.5 -149.5t-111 -102.5t-132.5 -61.5t-141 -19.5q-90 0 -174.5 32t-155.5 94t-114 166.5t-43 236.5zM240 1319q0 44 32 76t78 32 t78.5 -32t32.5 -76q0 -46 -32.5 -78.5t-78.5 -32.5t-78 32.5t-32 78.5zM262 504q0 -94 26.5 -168.5t71 -119t97 -67t108.5 -22.5q57 0 109.5 22.5t96.5 67t70.5 119t26.5 168.5t-26.5 168.5t-70.5 119t-96.5 67t-109.5 22.5q-56 0 -108.5 -22.5t-97 -67t-71 -119 t-26.5 -168.5zM674 1319q0 44 32 76t76 32q46 0 78.5 -32t32.5 -76q0 -46 -32.5 -78.5t-78.5 -32.5q-44 0 -76 32.5t-32 78.5z" />
<glyph unicode="&#xf7;" horiz-adv-x="1232" d="M109 426v166h1015v-166h-1015zM483 162q0 54 39 92.5t94 38.5t93.5 -38.5t38.5 -92.5q0 -56 -38.5 -94.5t-93.5 -38.5q-56 0 -94.5 38.5t-38.5 94.5zM483 856q0 56 38.5 94.5t94.5 38.5q55 0 93.5 -38.5t38.5 -94.5q0 -55 -38 -93t-94 -38t-94.5 38t-38.5 93z" />
<glyph unicode="&#xf8;" d="M78 504q0 107 28 195.5t75.5 149t110.5 102.5t132 61.5t141 19.5q163 0 287 -90l84 96l78 -67l-84 -101q123 -140 123 -366q0 -107 -28 -196t-75.5 -149.5t-111 -102.5t-132.5 -61.5t-141 -19.5q-182 0 -309 107l-86 -100l-78 67l90 109q-104 139 -104 346zM260 504 q0 -121 43 -205l442 516q-78 66 -180 66q-57 0 -110 -22.5t-97.5 -67t-71 -119t-26.5 -168.5zM365 211q84 -84 200 -84q57 0 109.5 22.5t96.5 67t70.5 119t26.5 168.5q0 138 -55 231z" />
<glyph unicode="&#xf9;" horiz-adv-x="1097" d="M139 369v649h172v-598q0 -53 4 -92t17.5 -79t36 -65t62 -41t93.5 -16q123 0 190.5 85.5t67.5 246.5v559h172v-1018h-129l-43 147q-100 -172 -317 -172q-170 0 -248 105t-78 289zM295 1370q0 32 23 55t55 23q41 0 63 -31l191 -248h-144q-112 91 -153 134q-35 37 -35 67z " />
<glyph unicode="&#xfa;" horiz-adv-x="1097" d="M139 369v649h172v-598q0 -53 4 -92t17.5 -79t36 -65t62 -41t93.5 -16q123 0 190.5 85.5t67.5 246.5v559h172v-1018h-129l-43 147q-100 -172 -317 -172q-170 0 -248 105t-78 289zM483 1169q3 4 47 62t89 115.5t61 74.5q21 27 57 27q33 0 54 -21q24 -21 24 -57 q0 -30 -27 -57q-33 -38 -161 -144h-144z" />
<glyph unicode="&#xfb;" horiz-adv-x="1097" d="M139 369v649h172v-598q0 -53 4 -92t17.5 -79t36 -65t62 -41t93.5 -16q123 0 190.5 85.5t67.5 246.5v559h172v-1018h-129l-43 147q-100 -172 -317 -172q-170 0 -248 105t-78 289zM217 1178l229 206q42 39 103 39q58 0 100 -39l230 -206h-193l-139 125l-137 -125h-193z" />
<glyph unicode="&#xfc;" horiz-adv-x="1097" d="M139 369v649h172v-598q0 -53 4 -92t17.5 -79t36 -65t62 -41t93.5 -16q123 0 190.5 85.5t67.5 246.5v559h172v-1018h-129l-43 147q-100 -172 -317 -172q-170 0 -248 105t-78 289zM221 1319q0 44 32.5 76t78.5 32t78 -32t32 -76q0 -46 -32 -78.5t-78 -32.5t-78.5 32.5 t-32.5 78.5zM655 1319q0 44 32.5 76t76.5 32q46 0 78 -32t32 -76q0 -46 -32 -78.5t-78 -32.5q-44 0 -76.5 32.5t-32.5 78.5z" />
<glyph unicode="&#xfd;" horiz-adv-x="878" d="M0 1014h190l250 -783l250 783h189l-361 -1059q-30 -89 -55 -138t-64.5 -85.5t-94 -49t-140.5 -12.5h-88v152h69q111 0 149 30t73 146zM367 1169q3 4 47 62t88.5 115.5t60.5 74.5q21 27 58 27q32 0 53 -21q24 -21 24 -57q0 -31 -26 -57q-30 -34 -162 -144h-143z" />
<glyph unicode="&#xfe;" horiz-adv-x="1159" d="M143 -330v1700h172v-514q48 83 131 130.5t199 47.5q87 0 165.5 -36t139 -102t96 -167.5t35.5 -224.5q0 -122 -35.5 -223t-96 -167t-139 -102.5t-165.5 -36.5q-115 0 -198.5 48t-131.5 131v-484h-172zM311 504q0 -178 78.5 -279.5t210.5 -101.5t210.5 101t78.5 280 t-78.5 281t-210.5 102t-210.5 -102t-78.5 -281z" />
<glyph unicode="&#xff;" horiz-adv-x="878" d="M0 1014h190l250 -783l250 783h189l-361 -1059q-30 -89 -55 -138t-64.5 -85.5t-94 -49t-140.5 -12.5h-88v152h69q111 0 149 30t73 146zM113 1319q0 44 32 76t78 32t78.5 -32t32.5 -76q0 -46 -32.5 -78.5t-78.5 -32.5t-78 32.5t-32 78.5zM547 1319q0 44 32 76t76 32 q46 0 78.5 -32t32.5 -76q0 -46 -32.5 -78.5t-78.5 -32.5q-44 0 -76 32.5t-32 78.5z" />
<glyph unicode="&#x152;" horiz-adv-x="2154" d="M102 686q0 207 77.5 367t224 250t339.5 90q269 0 447 -170v147h887v-166h-736v-416h543v-165h-543v-457h736v-166h-887v154q-176 -179 -447 -179q-193 0 -339.5 91.5t-224 252.5t-77.5 367zM299 686q0 -256 125.5 -400.5t318.5 -144.5t320 143t127 400q0 111 -25 203.5 t-67.5 155.5t-100 106.5t-121.5 63.5t-133 20q-193 0 -318.5 -145t-125.5 -402z" />
<glyph unicode="&#x153;" horiz-adv-x="1898" d="M78 504q0 133 42.5 237.5t113 166.5t155 94t176.5 32q118 0 225 -52.5t175 -154.5q66 98 170.5 152.5t228.5 54.5q95 0 176 -31.5t138 -86.5t96 -127.5t55 -156t10 -171.5h-782q2 -74 23.5 -133t54 -95.5t74 -61t81.5 -34.5t80 -10q158 0 238 100l166 -49 q-60 -92 -163.5 -147.5t-240.5 -55.5q-136 0 -240 54t-167 151q-68 -100 -175 -152.5t-223 -52.5q-91 0 -176 32t-155.5 94t-113 166.5t-42.5 236.5zM260 504q0 -94 26.5 -168.5t71 -119t97.5 -67t110 -22.5t109.5 22.5t96.5 67t70.5 119t26.5 168.5q0 95 -26.5 170 t-70.5 119.5t-96.5 67t-109.5 22.5t-110 -23t-97.5 -67t-71 -119t-26.5 -170zM1059 598h598q-3 116 -83 202.5t-210 86.5q-124 0 -209.5 -72t-95.5 -217z" />
<glyph unicode="&#x178;" horiz-adv-x="1218" d="M20 1368h211l379 -661l377 661h211l-491 -838v-530h-193v530zM283 1626q0 44 32.5 76.5t77.5 32.5q46 0 78.5 -32.5t32.5 -76.5q0 -46 -32.5 -78t-78.5 -32t-78 32t-32 78zM717 1626q0 44 32 76.5t76 32.5q46 0 78.5 -32.5t32.5 -76.5q0 -46 -32.5 -78t-78.5 -32 q-44 0 -76 32t-32 78z" />
<glyph unicode="&#x2c6;" horiz-adv-x="878" d="M109 1178l229 206q42 39 102 39q59 0 101 -39l229 -206h-192l-140 125l-137 -125h-192z" />
<glyph unicode="&#x2dc;" horiz-adv-x="890" d="M109 1182q18 106 75.5 159.5t141.5 53.5q49 0 94 -22t85 -44t75 -22q52 0 79 47q22 39 60 39q25 0 44 -19t19 -45q0 -44 -56 -97.5t-142 -53.5q-48 0 -95 22t-88 44t-73 22q-37 0 -59 -22t-27 -62h-133z" />
<glyph unicode="&#x2000;" horiz-adv-x="891" />
<glyph unicode="&#x2001;" horiz-adv-x="1782" />
<glyph unicode="&#x2002;" horiz-adv-x="891" />
<glyph unicode="&#x2003;" horiz-adv-x="1782" />
<glyph unicode="&#x2004;" horiz-adv-x="594" />
<glyph unicode="&#x2005;" horiz-adv-x="445" />
<glyph unicode="&#x2006;" horiz-adv-x="297" />
<glyph unicode="&#x2007;" horiz-adv-x="297" />
<glyph unicode="&#x2008;" horiz-adv-x="222" />
<glyph unicode="&#x2009;" horiz-adv-x="356" />
<glyph unicode="&#x200a;" horiz-adv-x="99" />
<glyph unicode="&#x2010;" horiz-adv-x="753" d="M78 426v166h598v-166h-598z" />
<glyph unicode="&#x2011;" horiz-adv-x="753" d="M78 426v166h598v-166h-598z" />
<glyph unicode="&#x2012;" horiz-adv-x="753" d="M78 426v166h598v-166h-598z" />
<glyph unicode="&#x2013;" horiz-adv-x="983" d="M84 426v162h815v-162h-815z" />
<glyph unicode="&#x2014;" horiz-adv-x="1638" d="M84 426v162h1470v-162h-1470z" />
<glyph unicode="&#x2018;" horiz-adv-x="481" d="M109 987q0 24 10 51l127 330h112l-96 -250q48 -8 79.5 -45t31.5 -86q0 -55 -38.5 -93t-92.5 -38q-55 0 -94 39t-39 92z" />
<glyph unicode="&#x2019;" horiz-adv-x="481" d="M109 1260q0 55 38.5 94t92.5 39q55 0 94 -39t39 -92q0 -23 -11 -52l-126 -331h-113l96 251q-48 8 -79 44.5t-31 85.5z" />
<glyph unicode="&#x201a;" horiz-adv-x="481" d="M109 106q0 55 38.5 94.5t92.5 39.5q55 0 94 -39t39 -92q0 -23 -11 -52l-126 -331h-113l96 251q-48 8 -79 44t-31 85z" />
<glyph unicode="&#x201c;" horiz-adv-x="815" d="M109 987q0 24 10 51l127 330h112l-96 -250q48 -8 79.5 -45t31.5 -86q0 -55 -38.5 -93t-92.5 -38q-55 0 -94 39t-39 92zM442 987q0 22 11 51l127 330h112l-94 -250q46 -8 77.5 -45t31.5 -86q0 -55 -39 -93t-93 -38q-55 0 -94 39t-39 92z" />
<glyph unicode="&#x201d;" horiz-adv-x="815" d="M109 1260q0 55 38.5 94t92.5 39q55 0 94 -39t39 -92q0 -23 -11 -52l-126 -331h-113l96 251q-48 8 -79 44.5t-31 85.5zM442 1260q0 56 39 94.5t94 38.5t93.5 -39t38.5 -92q0 -23 -11 -52l-125 -331h-114l96 251q-48 8 -79.5 44.5t-31.5 85.5z" />
<glyph unicode="&#x201e;" horiz-adv-x="815" d="M109 106q0 55 38.5 94.5t92.5 39.5q55 0 94 -39t39 -92q0 -23 -11 -52l-126 -331h-113l96 251q-48 8 -79 44t-31 85zM442 106q0 56 39 95t94 39t93.5 -39t38.5 -92q0 -23 -11 -52l-125 -331h-114l96 251q-48 8 -79.5 44t-31.5 85z" />
<glyph unicode="&#x2022;" horiz-adv-x="897" d="M109 520q0 141 99.5 240.5t240.5 99.5t240 -99.5t99 -240.5q0 -140 -99 -240t-240 -100t-240.5 100t-99.5 240z" />
<glyph unicode="&#x2026;" horiz-adv-x="1425" d="M109 106q0 55 38.5 94.5t92.5 39.5q55 0 94 -39t39 -95q0 -54 -39 -92.5t-94 -38.5q-54 0 -92.5 38.5t-38.5 92.5zM582 106q0 56 38 95t93 39t94 -39t39 -95q0 -54 -39 -92.5t-94 -38.5t-93 38.5t-38 92.5zM1053 106q0 56 39 95t94 39q54 0 92.5 -39.5t38.5 -94.5 q0 -54 -38.5 -92.5t-92.5 -38.5q-55 0 -94 38.5t-39 92.5z" />
<glyph unicode="&#x202f;" horiz-adv-x="356" />
<glyph unicode="&#x2039;" horiz-adv-x="722" d="M109 512l303 432h202l-305 -432l305 -430h-202z" />
<glyph unicode="&#x203a;" horiz-adv-x="722" d="M109 82l305 430l-305 432h204l301 -432l-301 -430h-204z" />
<glyph unicode="&#x205f;" horiz-adv-x="445" />
<glyph unicode="&#x20ac;" horiz-adv-x="1359" d="M31 492l57 104h117q-2 29 -2 88t2 88h-174l57 105h129q45 238 198 377t378 139q161 0 288.5 -82t194.5 -230l-160 -57q-45 96 -129.5 151.5t-204.5 55.5q-138 0 -240 -92t-139 -262h510l-57 -105h-469q-2 -27 -2 -88q0 -59 2 -88h373l-58 -104h-299q40 -168 141.5 -261.5 t243.5 -93.5q119 0 204.5 54.5t131.5 150.5l158 -57q-68 -150 -200.5 -230t-303.5 -80q-224 0 -370.5 139.5t-190.5 377.5h-186z" />
<glyph unicode="&#x2122;" horiz-adv-x="1736" d="M109 1245v123h620v-123h-242v-647h-137v647h-241zM805 598v770h221l191 -582l190 582h221v-770h-137v571l-201 -571h-147l-201 571v-571h-137z" />
<glyph unicode="&#x25fc;" horiz-adv-x="1013" d="M0 0v1014h1014v-1014h-1014z" />
</font>
</defs>
</svg>
